<?xml version="1.0" standalone="no"?>
<!DOCTYPE svg PUBLIC "-//W3C//DTD SVG 20010904//EN"
 "http://www.w3.org/TR/2001/REC-SVG-20010904/DTD/svg10.dtd">
<svg version="1.0" xmlns="http://www.w3.org/2000/svg"
 width="251.000000pt" height="210.000000pt" viewBox="0 0 251.000000 210.000000"
 preserveAspectRatio="xMidYMid meet">

<g transform="translate(0.000000,210.000000) scale(0.100000,-0.100000)"
fill="#000000" stroke="none">
<path d="M1330 1959 c-19 -5 -73 -6 -120 -3 -101 7 -265 -11 -300 -33 -14 -8
-36 -26 -50 -39 -23 -21 -84 -48 -136 -61 -12 -3 -59 4 -105 15 -135 32 -267
54 -280 47 -13 -9 -11 -16 31 -160 51 -172 54 -178 121 -220 32 -20 59 -43 59
-51 0 -8 5 -12 10 -9 19 12 10 23 -54 63 -54 34 -67 47 -75 79 -6 21 -29 92
-50 158 -22 66 -38 121 -36 123 6 7 254 -38 313 -56 48 -15 56 -14 110 2 33
11 77 36 105 59 46 38 53 40 170 57 95 14 134 16 175 8 36 -8 73 -8 120 0 54
8 89 7 178 -7 102 -15 116 -20 157 -54 24 -20 70 -46 102 -58 54 -20 59 -20
113 -5 51 14 284 56 310 56 6 0 1 -29 -12 -72 -13 -40 -36 -113 -51 -162 l-28
-89 -63 -39 -63 -40 50 -100 50 -101 -16 -121 c-23 -174 -26 -186 -41 -186 -8
0 -17 8 -20 18 -3 9 -9 24 -14 33 -6 11 3 53 25 125 19 60 35 117 35 127 0 9
-20 58 -45 107 -25 49 -45 93 -45 97 0 5 31 27 68 50 l68 42 17 73 c17 71 21
108 13 108 -2 0 -36 -18 -75 -40 -39 -22 -74 -40 -79 -40 -5 0 -15 34 -21 76
-10 61 -16 74 -28 70 -54 -21 -102 -27 -123 -16 -32 17 -33 7 -2 -14 17 -11
51 -65 89 -138 l63 -120 -106 -119 c-61 -69 -119 -145 -137 -182 l-32 -62
-187 -30 c-104 -16 -188 -33 -188 -36 0 -4 30 -12 68 -19 75 -14 122 -35 59
-26 -37 5 -39 4 -33 -19 4 -15 0 -29 -10 -39 -19 -19 -41 -22 -27 -3 17 21 21
66 7 71 -37 14 -114 17 -154 6 -42 -12 -43 -13 -22 -23 12 -5 22 -13 22 -16 0
-11 -79 -85 -84 -80 -3 2 0 24 5 48 5 24 8 46 5 48 -3 3 -23 2 -45 -2 l-41 -7
0 -55 c0 -30 5 -63 10 -73 8 -14 7 -25 -2 -40 -18 -28 -28 -25 -28 9 0 73 -39
103 -82 64 -17 -15 -18 -15 -18 0 0 18 19 40 60 70 l25 18 -30 -6 c-19 -4 -26
-3 -20 3 6 5 72 22 148 38 75 16 137 31 137 34 0 3 -86 18 -191 34 l-190 29
-34 67 c-21 41 -71 109 -134 179 -56 61 -101 114 -101 117 0 12 121 244 128
244 4 0 21 11 37 25 l30 25 -38 -17 c-35 -16 -40 -16 -89 0 -62 20 -64 18 -73
-75 l-7 -68 -83 45 c-45 25 -85 45 -89 45 -11 0 -7 -30 16 -106 21 -74 21 -74
88 -115 l67 -42 -47 -106 c-52 -119 -52 -98 1 -279 17 -57 29 -105 27 -107 -2
-3 -15 -6 -29 -7 -23 -3 -25 1 -41 97 -29 171 -27 199 16 285 46 90 39 87 -16
-6 -39 -68 -39 -69 -34 -149 3 -44 11 -115 17 -158 5 -42 8 -81 5 -86 -3 -5
-18 -11 -33 -14 -43 -9 -111 -58 -124 -89 -14 -34 1 -56 63 -90 20 -12 35 -25
32 -29 -3 -5 3 -6 13 -2 17 5 17 4 2 -11 -9 -9 -78 -42 -155 -72 -165 -64
-184 -73 -198 -97 -16 -26 16 -47 70 -47 79 0 346 94 368 129 4 6 12 11 17 11
5 0 2 -11 -7 -25 -13 -20 -14 -28 -4 -40 22 -27 62 -18 105 25 22 22 51 41 65
42 25 3 25 2 28 -78 2 -66 7 -85 22 -99 16 -14 20 -31 20 -82 l0 -63 40 0 c33
0 40 3 40 20 0 13 -7 20 -20 20 -16 0 -20 7 -20 35 0 64 21 47 111 -90 l59
-90 132 -47 c73 -26 150 -48 170 -48 33 0 225 61 276 89 11 6 34 34 52 62 17
28 40 53 51 56 10 3 19 9 19 14 0 13 -44 11 -58 -3 -22 -22 -24 0 -3 40 24 48
39 59 47 38 9 -24 22 -19 38 12 8 16 28 43 44 60 28 29 35 32 94 32 39 1 70 6
82 15 11 8 16 15 11 15 -20 0 33 28 83 45 29 9 52 19 50 21 -5 4 -124 -15
-148 -24 -8 -3 -21 -6 -29 -8 -49 -10 -68 -18 -88 -36 -13 -12 -26 -18 -30
-15 -3 4 -15 -1 -26 -10 -19 -17 -20 -17 -8 4 15 29 14 30 -10 36 -12 3 -18
10 -14 16 3 6 0 11 -8 11 -8 0 -37 -32 -63 -70 -42 -62 -49 -68 -56 -50 -8 21
4 64 25 88 6 8 12 22 14 32 2 17 -2 17 -46 -6 -43 -23 -53 -24 -89 -15 -49 14
-62 29 -69 81 -5 34 -9 41 -26 38 -12 -2 -23 -14 -27 -28 -14 -48 -30 -147
-31 -186 l-1 -39 -13 40 c-8 24 -13 32 -14 20 -1 -16 -4 -15 -17 10 -12 23
-15 47 -11 98 5 59 4 68 -9 63 -9 -3 -25 -6 -37 -6 -12 0 -43 -23 -76 -58 -53
-54 -57 -57 -72 -41 -16 16 -16 19 2 49 17 28 18 33 4 46 -20 20 -12 31 28 39
17 4 34 11 37 16 3 4 34 44 68 87 59 76 129 136 148 130 9 -3 27 10 66 47 l20
20 -11 -22 c-6 -12 -10 -26 -9 -30 3 -13 -34 -133 -43 -139 -5 -3 -9 -16 -9
-30 0 -20 5 -24 28 -24 20 0 35 11 57 41 44 59 125 117 202 145 68 23 137 34
83 13 -23 -10 -24 -11 -7 -23 9 -7 17 -16 17 -19 0 -4 -28 -21 -62 -38 -71
-35 -121 -69 -115 -76 3 -2 29 2 58 11 30 8 83 17 117 21 l64 6 -21 -22 c-25
-27 -21 -33 17 -24 18 3 34 16 41 31 16 35 15 36 -21 33 -18 -2 -44 3 -58 11
-25 13 -25 14 25 27 28 7 60 13 72 13 15 0 34 15 54 43 29 38 31 37 13 -8 -5
-11 -2 -14 12 -8 9 3 15 2 12 -3 -4 -5 24 -8 65 -6 49 2 83 -2 107 -12 32 -14
33 -15 10 -16 -20 0 -22 -3 -10 -10 11 -6 34 0 75 20 60 28 195 49 195 29 0
-5 -7 -9 -16 -9 -11 0 -13 -6 -9 -19 5 -17 -1 -22 -37 -31 -98 -25 -97 -22
-27 -63 35 -21 55 -29 45 -18 -10 11 -31 25 -47 31 -38 16 -37 30 4 30 49 1
117 35 117 59 0 11 -9 25 -21 31 -23 13 -144 7 -198 -9 -24 -8 -55 -7 -104 1
l-69 11 7 61 c3 34 10 85 16 115 19 113 13 161 -32 242 -22 41 -41 78 -42 83
-1 5 25 27 57 50 l60 41 48 145 c26 80 48 157 48 173 0 24 -4 27 -33 27 -29 0
-176 -28 -312 -60 -46 -11 -54 -10 -105 15 -30 14 -77 41 -104 60 -26 19 -60
35 -75 35 -14 0 -61 7 -104 15 -87 17 -106 17 -157 4z m-440 -920 c0 -16 -35
-44 -93 -78 -31 -18 -59 -36 -62 -42 -4 -5 -11 -9 -16 -9 -10 0 36 65 93 129
31 35 34 36 56 23 12 -8 22 -18 22 -23z m870 -31 c0 -17 -83 -27 -113 -13 -14
6 -16 4 -11 -11 6 -18 6 -18 -7 -1 -14 17 -89 42 -89 28 0 -3 16 -16 36 -29
l35 -23 -38 -25 c-21 -14 -57 -45 -81 -67 l-43 -42 26 60 c20 44 26 72 23 107
-2 26 0 48 3 48 3 0 31 -5 62 -11 55 -11 57 -11 99 20 l43 32 27 -33 c15 -18
28 -36 28 -40z m-851 -25 c-68 -211 -70 -223 -36 -223 35 0 45 12 52 63 4 26
15 57 25 69 16 21 19 21 34 5 11 -11 17 -34 17 -72 1 -64 14 -70 48 -24 44 60
164 179 179 179 8 0 25 8 36 18 20 17 20 17 3 -10 -14 -22 -14 -28 -4 -28 8 0
22 9 32 20 10 11 22 20 28 20 5 0 -9 -19 -31 -42 -67 -72 -211 -239 -254 -298
-65 -86 -90 -110 -115 -110 -40 0 -51 55 -27 141 4 14 -1 15 -27 10 -39 -8
-53 -41 -71 -169 l-12 -86 -12 40 c-6 21 -12 33 -13 25 -1 -8 -4 -11 -8 -7 -4
4 -10 44 -13 89 l-5 82 -30 -3 c-19 -2 -46 -20 -75 -48 -35 -34 -50 -42 -68
-37 -16 4 -21 10 -16 22 23 57 6 68 -47 30 -75 -53 -334 -129 -376 -110 -49
23 -29 38 110 85 147 49 237 97 237 125 0 4 -29 24 -65 45 -40 23 -65 44 -65
55 0 46 106 100 194 101 49 0 57 -2 47 -14 -9 -11 -9 -16 1 -22 8 -5 -11 -16
-56 -29 l-70 -21 57 -32 c44 -25 58 -39 65 -64 12 -47 34 -46 66 2 44 67 163
182 183 178 10 -2 26 6 36 17 10 11 16 14 12 8 -3 -7 -4 -13 -1 -13 3 0 12 14
21 30 19 37 26 39 14 3z m-290 -149 c6 -15 9 -35 6 -46 -6 -17 -10 -15 -36 18
-16 20 -26 40 -23 45 11 18 41 8 53 -17z m631 -249 c0 -31 7 -72 16 -93 9 -20
17 -66 18 -102 l1 -65 38 -9 c32 -8 42 -6 67 12 34 26 40 27 40 7 0 -8 -32
-50 -71 -95 -39 -44 -68 -80 -65 -80 3 0 57 24 120 54 97 46 117 59 133 89 17
33 19 35 38 21 20 -15 20 -15 0 -51 -19 -34 -29 -39 -165 -86 l-145 -50 -144
49 c-133 46 -145 52 -167 86 -26 40 -30 53 -15 43 5 -3 12 -1 16 5 10 17 19
11 34 -21 11 -25 33 -39 117 -79 157 -74 158 -74 65 31 -49 53 -79 95 -72 97
7 2 18 -3 25 -13 11 -15 38 -19 104 -16 22 1 23 4 20 69 -3 60 -5 67 -25 70
-14 2 -30 20 -48 54 l-26 50 28 32 c56 62 63 61 63 -9z m-200 24 c-7 -11 -14
-18 -17 -15 -3 3 0 12 7 21 18 21 23 19 10 -6z m424 -59 c14 0 14 -4 -1 -37
-10 -21 -23 -45 -29 -53 -7 -8 -16 -28 -19 -43 -12 -46 -17 -23 -19 73 -2 64
-6 94 -15 100 -8 4 -11 12 -7 18 3 6 21 -5 40 -24 19 -19 41 -34 50 -34z
m-589 -41 c24 -46 24 -47 4 -52 -34 -9 -70 63 -53 108 8 20 12 15 49 -56z
m154 9 c-1 -68 -6 -61 -11 15 -2 26 0 47 4 47 5 0 7 -28 7 -62z m74 2 c14 0
17 -10 17 -57 l-1 -58 -34 65 c-39 74 -43 90 -17 67 10 -10 26 -17 35 -17z
m394 -42 c-2 -13 -4 -3 -4 22 0 25 2 35 4 23 2 -13 2 -33 0 -45z m189 6 c-5
-17 -13 -24 -31 -24 -31 0 -31 3 3 47 21 29 28 33 30 19 2 -10 1 -28 -2 -42z
m-896 -84 c0 -33 3 -40 20 -40 11 0 20 -5 20 -11 0 -6 -12 -9 -27 -7 -26 3
-28 7 -31 51 -2 28 1 47 7 47 6 0 11 -18 11 -40z m176 27 c4 -4 0 -7 -9 -7
-13 0 -17 -9 -17 -40 0 -22 -4 -40 -10 -40 -5 0 -10 18 -10 40 0 30 -4 40 -16
40 -8 0 -13 4 -10 9 7 10 61 9 72 -2z m104 -37 c0 -21 -4 -42 -10 -45 -5 -3
-10 -3 -11 2 0 4 -2 17 -5 28 -6 28 5 67 16 60 6 -3 10 -24 10 -45z m145 40
c4 -6 -5 -10 -19 -10 -14 0 -26 -4 -26 -10 0 -5 9 -10 20 -10 11 0 20 -4 20
-10 0 -5 -9 -10 -20 -10 -11 0 -20 -4 -20 -10 0 -5 11 -10 25 -10 14 0 25 -4
25 -10 0 -5 -16 -10 -35 -10 -35 0 -35 0 -35 44 0 26 5 46 13 49 21 9 46 7 52
-3z m139 4 c22 -9 10 -23 -14 -17 -11 3 -20 1 -20 -5 0 -5 11 -13 25 -16 33
-9 34 -43 1 -52 -25 -6 -46 1 -46 15 0 5 11 6 25 3 14 -2 25 0 25 6 0 5 -11
13 -25 16 -27 7 -32 25 -13 44 14 14 20 14 42 6z m160 -7 c26 -19 13 -57 -20
-57 -15 0 -24 -6 -24 -15 0 -8 -4 -15 -10 -15 -11 0 -14 83 -3 93 10 11 38 8
57 -6z"/>
<path d="M741 766 c-8 -9 -11 -19 -7 -23 9 -9 29 13 24 27 -2 8 -8 7 -17 -4z"/>
<path d="M1480 406 c0 -10 9 -16 21 -16 24 0 21 23 -4 28 -10 2 -17 -3 -17
-12z"/>
<path d="M1011 1914 c-52 -8 -98 -17 -101 -21 -3 -5 -36 -42 -73 -84 -70 -80
-72 -86 -61 -173 5 -32 10 -43 18 -37 22 18 111 37 141 30 62 -14 67 -12 51
18 -10 20 -29 32 -72 45 l-59 17 140 -5 c77 -4 144 -10 149 -15 8 -7 -11 -146
-31 -236 l-5 -22 59 16 c32 9 65 23 73 31 8 8 11 12 5 9 -11 -6 -3 360 10 404
6 25 5 26 -41 33 -60 8 -88 6 -203 -10z"/>
<path d="M1321 1923 c-32 -4 -33 -6 -26 -36 4 -18 9 -115 11 -217 2 -102 6
-190 8 -195 5 -13 105 -40 114 -31 3 4 -1 53 -11 109 -25 151 -26 147 31 147
27 0 91 2 143 5 l94 5 -58 -16 c-46 -13 -61 -22 -68 -42 -5 -13 -8 -27 -6 -29
3 -2 23 0 46 6 46 10 115 -3 143 -26 18 -16 20 -10 33 87 l6 45 -78 83 -78 82
-102 15 c-101 15 -134 16 -202 8z"/>
<path d="M1262 1857 c-17 -68 -16 -351 2 -366 10 -9 16 -8 26 4 15 18 9 346
-7 384 -9 23 -10 22 -21 -22z"/>
<path d="M1040 1619 c-19 -12 -52 -36 -73 -54 -54 -46 -83 -52 -116 -22 -14
13 -34 27 -45 31 -17 6 -18 2 -11 -66 3 -40 12 -102 18 -138 l12 -65 33 90 32
90 95 74 c83 64 102 81 93 81 -2 0 -19 -10 -38 -21z"/>
<path d="M1461 1636 c2 -2 49 -39 104 -83 l100 -79 29 -90 30 -89 11 80 c26
179 27 195 7 195 -10 0 -29 -11 -42 -25 -32 -34 -70 -26 -126 25 -39 35 -93
70 -110 70 -4 0 -5 -2 -3 -4z"/>
<path d="M840 1601 l-35 -7 39 -17 c21 -9 43 -17 48 -17 12 0 88 39 88 45 0 7
-98 4 -140 -4z"/>
<path d="M1564 1603 c2 -5 20 -17 40 -27 32 -17 40 -18 76 -6 22 7 40 16 40
20 0 8 -76 20 -127 20 -19 0 -32 -3 -29 -7z"/>
<path d="M985 1485 c-5 -2 -26 -6 -46 -9 -35 -6 -37 -10 -74 -100 l-38 -94 23
-56 c20 -48 28 -57 54 -61 59 -10 345 -55 350 -55 4 0 6 22 6 50 0 48 -2 51
-48 82 -115 79 -151 112 -151 140 -1 15 4 30 10 34 7 4 -2 19 -22 40 -31 32
-41 37 -64 29z"/>
<path d="M1491 1456 c-28 -29 -30 -34 -16 -46 8 -7 15 -21 15 -30 0 -18 -83
-89 -167 -145 -41 -26 -43 -30 -43 -76 0 -33 4 -49 13 -49 20 0 379 58 381 62
1 2 12 27 25 56 l22 52 -39 92 c-40 97 -40 97 -123 111 -32 5 -41 1 -68 -27z"/>
<path d="M1087 1409 c-18 -10 -24 -49 -7 -49 5 0 13 7 18 16 7 13 15 15 38 7
23 -8 31 -19 44 -62 10 -35 24 -59 43 -73 32 -24 32 -23 7 62 -13 44 -26 69
-38 73 -9 3 -33 12 -52 20 -25 11 -41 12 -53 6z"/>
<path d="M1373 1394 c-29 -13 -53 -25 -53 -26 0 -2 -9 -34 -19 -71 l-20 -67
29 16 c26 16 50 67 50 107 0 8 15 20 32 26 27 10 35 9 44 -4 15 -20 24 -19 24
3 0 17 -18 43 -29 41 -4 0 -30 -11 -58 -25z"/>
<path d="M2075 859 c-17 -4 -45 -7 -63 -8 -30 -1 -62 -19 -62 -35 0 -3 34 -6
75 -6 41 0 75 -3 75 -8 0 -4 -14 -13 -30 -20 -17 -8 -28 -18 -25 -22 3 -5 -23
-12 -57 -16 -50 -6 -68 -13 -92 -36 -15 -16 -26 -31 -24 -34 3 -2 38 1 79 7
56 10 74 10 77 1 2 -7 12 -12 22 -12 10 0 22 -4 25 -10 18 -29 146 12 192 61
l22 24 -45 20 c-24 11 -44 23 -44 27 0 5 -7 8 -15 8 -18 0 -38 37 -31 55 5 15
-21 16 -79 4z"/>
<path d="M1286 764 c-13 -13 -15 -19 -6 -22 15 -5 33 13 28 28 -3 9 -9 7 -22
-6z"/>
<path d="M1530 724 c-32 -75 -13 -83 67 -28 54 37 68 56 34 47 -10 -3 -33 3
-50 11 l-31 17 -20 -47z"/>
<path d="M1733 756 c-3 -5 1 -14 9 -20 18 -13 10 -41 -23 -88 -12 -16 -20 -30
-18 -32 2 -2 18 1 35 5 23 7 38 22 58 60 25 45 26 50 10 49 -32 -4 -35 -1 -24
20 9 18 8 20 -15 18 -15 -2 -29 -7 -32 -12z"/>
<path d="M2391 754 c0 -11 3 -14 6 -6 3 7 2 16 -1 19 -3 4 -6 -2 -5 -13z"/>
<path d="M2386 703 c-13 -42 -153 -113 -299 -152 -45 -12 -61 -20 -44 -20 108
-3 371 132 355 181 -3 8 -7 5 -12 -9z"/>
<path d="M1943 533 c9 -2 23 -2 30 0 6 3 -1 5 -18 5 -16 0 -22 -2 -12 -5z"/>
<path d="M2035 420 c-13 -26 -14 -35 -3 -58 26 -54 108 -33 108 28 0 61 -78
83 -105 30z m79 4 c9 -8 16 -24 16 -34 0 -20 -25 -50 -41 -50 -27 0 -49 22
-49 50 0 44 44 65 74 34z"/>
<path d="M2064 406 c-9 -24 4 -48 23 -44 24 4 24 52 0 56 -9 2 -20 -4 -23 -12z
m34 -13 c-4 -22 -22 -20 -26 1 -2 10 3 16 13 16 10 0 15 -7 13 -17z"/>
<path d="M421 408 c2 -32 2 -32 6 -4 l5 28 23 -22 24 -22 13 21 c17 27 26 27
31 -1 4 -20 4 -19 6 5 1 32 -21 37 -42 7 l-14 -20 -18 20 c-26 28 -35 25 -34
-12z"/>
<path d="M600 395 c0 -34 5 -47 19 -55 47 -24 81 1 81 61 0 32 -3 39 -20 39
-17 0 -20 -6 -18 -37 1 -37 1 -37 5 -5 6 42 23 41 23 -2 0 -41 -21 -60 -55
-52 -21 5 -25 12 -25 46 0 48 17 53 23 8 4 -32 4 -32 5 5 2 31 -1 37 -18 37
-17 0 -20 -7 -20 -45z"/>
<path d="M1772 428 c-16 -16 -15 -49 1 -72 17 -24 80 -19 85 7 3 14 -2 17 -24
15 -20 -2 -29 2 -32 14 -3 14 2 16 33 11 33 -5 37 -4 33 13 -2 14 -13 20 -43
22 -23 2 -46 -3 -53 -10z m78 -6 c0 -4 -12 -8 -27 -7 -23 0 -28 -4 -28 -25 0
-21 5 -25 28 -25 15 1 27 -3 27 -7 0 -13 -55 -9 -68 4 -29 29 -6 68 40 68 15
0 28 -4 28 -8z"/>
<path d="M1922 388 c3 -45 6 -53 23 -53 17 0 20 8 23 53 3 50 2 52 -23 52 -25
0 -26 -2 -23 -52z m38 2 c0 -22 -4 -40 -10 -40 -5 0 -10 18 -10 40 0 22 5 40
10 40 6 0 10 -18 10 -40z"/>
<path d="M1646 401 c-4 -7 -5 -15 -2 -18 9 -9 19 4 14 18 -4 11 -6 11 -12 0z"/>
<path d="M440 371 c0 -11 -6 -22 -12 -24 -8 -3 -6 -6 5 -6 9 -1 17 6 17 15 0
13 3 14 13 5 10 -8 17 -7 25 1 9 9 12 8 12 -5 0 -10 8 -17 18 -17 10 0 13 3 6
8 -6 4 -14 15 -17 26 -6 14 -10 16 -21 7 -10 -8 -16 -9 -21 -1 -10 17 -25 11
-25 -9z"/>
</g>
</svg>
